<?xml version="1.0" encoding="UTF-8"?>
<svg width="498" height="498" viewBox="0 0 498 498" xmlns="http://www.w3.org/2000/svg" xmlns:xlink="http://www.w3.org/1999/xlink">
    <linearGradient id="linearGradient1" x1="268.851563" y1="103.203125" x2="273.289063" y2="296.515625" gradientUnits="userSpaceOnUse">
        <stop offset="0" stop-color="#fc0000" stop-opacity="1"/>
        <stop offset="1" stop-color="#fd3a3c" stop-opacity="1"/>
    </linearGradient>
    <filter id="filter1" x="0" y="0" width="498" height="498" filterUnits="userSpaceOnUse" primitiveUnits="userSpaceOnUse" color-interpolation-filters="sRGB">
        <feFlood flood-color="#000000" flood-opacity="0.4369"/>
        <feComposite in2="SourceGraphic" operator="out"/>
        <feGaussianBlur stdDeviation="26"/>
        <feOffset dx="0" dy="0"/>
        <feComposite in2="SourceGraphic" operator="atop"/>
    </filter>
    <path id="Rounded-Rectangle-copy" fill="url(#linearGradient1)" fill-rule="evenodd" stroke="none" filter="url(#filter1)" d="M 0 458 C -0 480.0914 17.908609 498 40 498 L 458 498 C 480.0914 498 498 480.0914 498 458 L 498 40 C 498 17.9086 480.0914 0 458 0 L 40 0 C 17.908609 0 0 17.9086 0 40 Z"/>
    <g id="Group">
        <path id="Rectangle" fill="#474747" fill-rule="evenodd" stroke="none" d="M 0 309 L 245 309 C 257.150269 309 267 299.150269 267 287 L 267 265 L 0 265 Z"/>
        <path id="Rectangle-copy" fill="#474747" fill-rule="evenodd" stroke="none" d="M 232 302 C 240.591537 310.591553 254.521164 310.591553 263.112701 302 L 442.056366 123.056335 L 426.5 107.5 C 417.908478 98.908447 403.978851 98.908447 395.387299 107.5 L 216.443649 286.443665 Z"/>
        <path id="Rectangle-copy-2" fill="#474747" fill-rule="evenodd" stroke="none" d="M 391 143 L 498 143 L 498 99 L 413 99 C 400.849731 99 391 108.849731 391 121 Z"/>
    </g>
    <path id="Right-Triangle" fill="#ffca63" fill-rule="evenodd" stroke="#ffca63" stroke-width="9" d="M 430.564229 368.236967 L 380.564229 318.000005 L 381.035923 418.000005 Z"/>
    <path id="Ellipse" fill="#5dd5fa" fill-rule="evenodd" stroke="#ffffff" stroke-width="20" d="M 193 115.5 C 193 73.80249 159.19751 40 117.5 40 C 75.802505 40 42 73.80249 42 115.5 C 42 157.19751 75.802505 191 117.5 191 C 159.19751 191 193 157.19751 193 115.5 Z"/>
    <path id="logo-black" fill="#474747" stroke="none" d="M 154.701401 93.432312 C 153.5616 85.051514 146.177399 78.446899 137.423996 77.167084 C 135.947205 76.950836 130.351791 76.163818 117.390099 76.163818 L 117.293297 76.163818 C 104.328102 76.163818 101.546501 76.950836 100.069702 77.167084 C 91.559998 78.411438 83.788773 84.346039 81.903305 92.825989 C 80.996422 97.002197 80.899635 101.632202 81.068115 105.879303 C 81.308273 111.96991 81.354874 118.049805 81.914063 124.115601 C 82.300636 128.144806 82.975021 132.141907 83.932152 136.076904 C 85.724411 143.344482 92.9795 149.392487 100.087601 151.859985 C 107.697899 154.433197 115.882095 154.860291 123.723999 153.093689 C 124.586601 152.895203 125.439796 152.664703 126.283295 152.402405 C 128.186691 151.803284 130.419891 151.133209 132.0616 149.956207 C 132.084091 149.939697 132.1026 149.918396 132.115601 149.893799 C 132.128601 149.869293 132.135895 149.842102 132.136795 149.814392 L 132.136795 143.936584 C 132.136398 143.910706 132.130203 143.885193 132.118591 143.862 C 132.106903 143.838806 132.090195 143.81839 132.069504 143.80249 C 132.048904 143.786499 132.024902 143.775299 131.999405 143.769592 C 131.973801 143.764008 131.947296 143.764099 131.921799 143.769897 C 126.897598 144.956909 121.7491 145.55191 116.583595 145.542511 C 107.694 145.542511 105.303101 141.369904 104.618401 139.63269 C 104.0681 138.131409 103.718597 136.565399 103.578896 134.974396 C 103.577499 134.947693 103.582497 134.92099 103.593399 134.896484 C 103.604301 134.872101 103.621002 134.850494 103.641899 134.833588 C 103.662903 134.816711 103.687599 134.804901 103.713997 134.799194 C 103.740402 134.793396 103.767799 134.794006 103.793999 134.80069 C 108.734497 135.979584 113.798996 136.574585 118.881302 136.573303 C 120.1036 136.573303 121.322296 136.573303 122.544701 136.541412 C 127.656197 136.399597 133.043701 136.140808 138.0728 135.169403 C 138.198303 135.144592 138.3237 135.123291 138.431305 135.0914 C 146.3638 133.584686 153.912796 128.855499 154.679901 116.879913 C 154.708603 116.408386 154.780289 111.941498 154.780289 111.452301 C 154.78389 109.789612 155.321594 99.657593 154.701401 93.432312 Z M 142.492493 123.314392 L 134.151398 123.314392 L 134.151398 103.106995 C 134.151398 98.852783 132.3591 96.683197 128.713593 96.683197 C 124.7061 96.683197 122.698799 99.249908 122.698799 104.319397 L 122.698799 115.38031 L 114.407799 115.38031 L 114.407799 104.319397 C 114.407799 99.249908 112.396896 96.683197 108.389397 96.683197 C 104.765396 96.683197 102.9552 98.852783 102.951599 103.106995 L 102.951599 123.314392 L 94.617599 123.314392 L 94.617599 102.493683 C 94.617599 98.239502 95.715698 94.859802 97.911797 92.354492 C 100.1772 89.855194 103.148796 88.571899 106.837296 88.571899 C 111.1064 88.571899 114.332497 90.195496 116.4832 93.439392 L 118.558701 96.885284 L 120.637695 93.439392 C 122.788399 90.195496 126.014496 88.571899 130.276505 88.571899 C 133.961395 88.571899 136.932892 89.855194 139.205505 92.354492 C 141.401703 94.857391 142.499695 98.237091 142.499695 102.493683 L 142.492493 123.314392 Z"/>
</svg>
